<?xml version="1.0" standalone="no"?>
<!DOCTYPE svg PUBLIC "-//W3C//DTD SVG 20010904//EN"
 "http://www.w3.org/TR/2001/REC-SVG-20010904/DTD/svg10.dtd">
<svg version="1.0" xmlns="http://www.w3.org/2000/svg"
 width="1024.000000pt" height="1024.000000pt" viewBox="0 0 1024.000000 1024.000000"
 preserveAspectRatio="xMidYMid meet">

<g transform="translate(0.000000,1024.000000) scale(0.100000,-0.100000)"
fill="#000000" stroke="none">
<path d="M2911 7619 c-273 -58 -494 -180 -701 -388 -221 -223 -358 -472 -421
-766 -18 -86 -19 -147 -19 -1286 0 -1345 -4 -1270 76 -1508 107 -324 308 -598
580 -793 160 -114 351 -194 519 -218 57 -8 689 -10 2230 -8 l2150 3 80 23
c114 32 177 58 288 119 270 150 497 385 632 653 81 161 146 375 166 544 7 60
9 479 7 1241 -4 1277 1 1170 -74 1400 -102 313 -331 609 -614 794 -106 69
-275 145 -399 180 l-96 26 -2155 2 c-2116 2 -2157 1 -2249 -18z m2269 -633
c30 -10 78 -30 105 -43 54 -28 151 -100 159 -120 4 -10 -208 -13 -1044 -13
-624 0 -1050 4 -1050 9 0 15 77 108 115 138 67 53 43 52 880 50 727 -2 784 -4
835 -21z m2108 -190 c33 -30 37 -40 37 -81 0 -40 -5 -51 -34 -77 -30 -27 -39
-30 -78 -25 -84 9 -130 82 -97 152 34 72 111 86 172 31z m-1732 -338 c-2 -73
-5 -382 -5 -685 -1 -494 -3 -553 -17 -553 -10 0 -12 4 -7 13 4 6 8 51 8 99 l0
88 -1390 0 c-815 0 -1393 4 -1398 9 -5 5 -7 118 -5 263 4 228 7 259 26 313 30
80 29 92 -3 71 -44 -29 -81 -17 -150 46 l-29 27 18 38 c60 126 190 257 323
326 157 81 54 76 1416 76 l1217 1 -4 -132z m794 117 c128 -19 187 -38 306 -96
243 -118 448 -354 513 -589 20 -73 38 -210 27 -210 -3 0 -24 20 -47 45 -23 25
-75 70 -116 101 -40 30 -80 68 -88 84 -34 66 -84 130 -162 208 l-83 82 -450 0
-450 0 -2 -87 c0 -49 -5 33 -10 182 -4 148 -6 275 -4 282 8 19 440 18 566 -2z
m-3770 -482 c-11 -17 -11 -17 -6 0 3 10 6 24 7 30 0 9 2 9 5 0 3 -7 0 -20 -6
-30z m3658 -80 c-81 -2 -216 -2 -300 0 -84 1 -18 3 147 3 165 0 234 -2 153 -3z
m-3691 -75 c-3 -7 -5 -2 -5 12 0 14 2 19 5 13 2 -7 2 -19 0 -25z m246 -711
l252 -2 -257 -3 -258 -2 2 333 3 332 2 -327 3 -328 253 -3z m4960 543 c60 -66
15 -160 -76 -160 -35 0 -50 6 -71 27 -51 51 -46 110 14 151 46 31 94 25 133
-18z m-1313 -3 c72 -2 96 -8 155 -35 62 -30 94 -58 320 -285 720 -724 825
-838 934 -1019 l23 -38 -131 0 c-72 0 -131 -2 -131 -4 0 -3 13 -40 30 -82 16
-43 33 -100 36 -126 l6 -47 117 -3 116 -3 -3 -120 c-2 -66 -8 -144 -13 -172
l-10 -53 -174 0 c-139 0 -190 -4 -257 -20 -46 -11 -88 -20 -94 -20 -7 0 -15
16 -18 35 -4 19 -25 71 -48 117 -32 64 -60 101 -122 163 -89 88 -141 120 -259
160 -165 55 -353 40 -511 -42 -103 -54 -222 -174 -269 -273 -52 -111 -68 -166
-74 -255 l-6 -80 -132 0 -132 0 -7 1097 c-4 604 -5 1102 -2 1106 5 8 414 7
656 -1z m-892 -1490 c-2 -397 -4 -608 -5 -469 l-3 252 -566 0 -565 -1 -47 40
c-117 97 -251 144 -412 145 -116 1 -183 -13 -277 -54 -115 -52 -207 -131 -281
-241 -24 -37 -42 -54 -52 -51 -12 4 -13 2 -3 -9 9 -11 8 -20 -2 -39 -8 -14
-14 -20 -14 -15 -1 6 3 17 9 25 5 9 5 19 -2 27 -8 9 -4 15 16 23 18 7 24 14
19 26 -4 12 -3 15 5 10 18 -11 28 25 11 38 -20 16 -24 56 -5 56 8 0 18 -5 22
-12 5 -8 2 -9 -10 -5 -14 5 -15 3 -6 -13 13 -24 32 -37 24 -16 -4 10 -1 16 8
16 7 0 19 9 25 19 11 17 8 19 -25 23 -20 1 -233 5 -472 6 -239 2 -437 5 -439
7 -1 2 4 14 13 27 10 13 16 43 16 74 l0 51 282 6 c309 7 316 8 346 71 19 38 0
92 -42 117 -28 17 -55 19 -311 21 -154 1 -232 4 -172 5 l107 4 0 273 c0 150 3
276 7 279 3 4 636 7 1405 7 l1398 -1 -2 -722z m-3011 506 c-2 -37 -3 -9 -3 62
0 72 1 102 3 68 2 -34 2 -93 0 -130z m0 -270 c-2 -32 -3 -6 -3 57 0 63 1 89 3
58 2 -32 2 -84 0 -115z m-144 -518 c-3 -9 -8 -14 -10 -11 -3 3 -2 9 2 15 9 16
15 13 8 -4z m2081 -1 c3 -8 2 -12 -4 -9 -6 3 -10 10 -10 16 0 14 7 11 14 -7z
m-441 -9 c131 -28 221 -99 280 -223 25 -54 30 -78 33 -155 1 -51 0 -80 -2 -65
l-5 27 -97 -2 -97 -2 -6 45 c-7 59 -31 103 -75 137 -47 35 -152 45 -202 19
-66 -34 -111 -108 -113 -186 0 -25 -3 -39 -6 -32 -3 8 -33 12 -100 12 l-95 0
6 -42 5 -43 -10 35 c-18 56 -5 180 24 244 54 117 181 214 307 235 77 12 77 12
153 -4z m2742 5 c86 -14 173 -60 234 -125 66 -70 100 -144 108 -233 l6 -70
-99 -1 c-57 -1 -101 -6 -105 -13 -4 -5 -8 19 -11 56 -3 54 -9 72 -34 103 -40
51 -96 77 -159 77 -112 -2 -194 -82 -196 -191 0 -26 -3 -42 -6 -35 -3 8 -33
12 -98 12 -81 0 -94 -2 -98 -17 -9 -36 -7 66 3 117 31 162 147 281 310 316 70
16 74 16 145 4z m-4398 -42 c-3 -8 -6 -5 -6 6 -1 11 2 17 5 13 3 -3 4 -12 1
-19z m2153 -41 c0 -12 0 -11 -24 28 l-17 30 20 -24 c12 -13 21 -28 21 -34z
m-2130 -127 c8 -14 8 -20 1 -16 -13 9 -41 102 -40 135 0 14 7 -2 14 -36 7 -34
19 -71 25 -83z m913 0 c-3 -12 -8 -19 -11 -16 -5 6 5 36 12 36 2 0 2 -9 -1
-20z m-16 -62 c-3 -7 -5 -2 -5 12 0 14 2 19 5 13 2 -7 2 -19 0 -25z m1300 -25
c-3 -10 -5 -4 -5 12 0 17 2 24 5 18 2 -7 2 -21 0 -30z m2770 15 c-3 -8 -6 -5
-6 6 -1 11 2 17 5 13 3 -3 4 -12 1 -19z m-4080 -120 c-2 -18 -4 -4 -4 32 0 36
2 50 4 33 2 -18 2 -48 0 -65z m4090 0 c-2 -18 -4 -4 -4 32 0 36 2 50 4 33 2
-18 2 -48 0 -65z m-2770 40 c-3 -8 -6 -5 -6 6 -1 11 2 17 5 13 3 -3 4 -12 1
-19z m3064 -49 c-13 -5 -58 -11 -100 -14 l-76 -4 75 9 c41 6 79 12 85 14 5 3
17 4 25 5 8 0 4 -5 -9 -10z m-3056 -9 c3 -5 1 -10 -4 -10 -6 0 -11 5 -11 10 0
6 2 10 4 10 3 0 8 -4 11 -10z m-841 -76 c3 -8 2 -12 -4 -9 -6 3 -10 10 -10 16
0 14 7 11 14 -7z m-150 -136 c10 -16 16 -28 13 -28 -9 0 -65 94 -71 120 -4 14
4 5 16 -20 13 -25 32 -57 42 -72z m251 44 c-3 -3 -11 0 -18 7 -9 10 -8 11 6 5
10 -3 15 -9 12 -12z m360 -90 l-39 -37 35 41 c19 22 36 39 39 37 2 -2 -13 -20
-35 -41z m2805 35 c0 -2 -12 -14 -27 -28 l-28 -24 24 28 c23 25 31 32 31 24z
m-100 -87 c-19 -17 -38 -30 -44 -30 -9 0 64 58 74 59 3 0 -11 -13 -30 -29z
m-2790 -14 c0 -2 -7 -7 -16 -10 -8 -3 -12 -2 -9 4 6 10 25 14 25 6z m-355 -16
c3 -5 1 -10 -4 -10 -6 0 -11 5 -11 10 0 6 2 10 4 10 3 0 8 -4 11 -10z m3079
-10 c-5 -5 -25 -12 -44 -15 -35 -5 -35 -5 5 9 51 18 51 18 39 6z m-2875 -26
c8 -7 -114 -2 -139 6 -14 4 11 5 55 2 44 -2 82 -6 84 -8z m54 9 c-7 -2 -19 -2
-25 0 -7 3 -2 5 12 5 14 0 19 -2 13 -5z m2660 -10 c-7 -2 -19 -2 -25 0 -7 3
-2 5 12 5 14 0 19 -2 13 -5z m54 1 c-3 -3 -12 -4 -19 -1 -8 3 -5 6 6 6 11 1
17 -2 13 -5z"/>
<path d="M3234 5916 c-38 -38 -44 -77 -19 -126 33 -64 7 -62 765 -58 671 3
688 3 710 23 61 55 66 140 11 182 -12 9 -183 12 -724 13 l-709 0 -34 -34z"/>
<path d="M6007 5544 c-4 -4 -7 -175 -7 -379 0 -370 0 -372 23 -406 32 -48 80
-77 140 -84 29 -4 179 -5 334 -3 266 3 283 4 309 24 67 50 69 55 72 282 l3
207 -181 180 -180 180 -253 3 c-139 2 -256 0 -260 -4z"/>
<path d="M5800 3680 l0 -100 125 0 125 0 1 58 c2 63 4 86 15 120 l6 22 -136 0
-136 0 0 -100z"/>
<path d="M3013 4805 c-51 -22 -68 -81 -42 -139 23 -50 56 -56 306 -56 125 0
245 5 265 10 97 27 105 147 12 186 -48 20 -495 19 -541 -1z"/>
<path d="M4552 4811 l-164 -6 -24 -28 c-34 -40 -32 -88 5 -129 l29 -33 401 -3
c253 -2 416 1 440 8 77 20 94 125 28 174 -27 20 -41 21 -290 22 -144 0 -336
-2 -425 -5z"/>
<path d="M4519 4401 c-23 -23 -29 -38 -29 -71 0 -33 6 -48 29 -71 l29 -29 352
0 352 0 29 29 c32 32 38 71 17 116 -24 53 -38 55 -408 55 l-342 0 -29 -29z"/>
<path d="M2542 4190 c0 -14 2 -19 5 -12 2 6 2 18 0 25 -3 6 -5 1 -5 -13z"/>
<path d="M2573 4203 c9 -2 25 -2 35 0 9 3 1 5 -18 5 -19 0 -27 -2 -17 -5z"/>
</g>
</svg>
