<svg xmlns="http://www.w3.org/2000/svg" viewBox="0 0 1024 1024" {...props}>
    <path d="M510.5 308.1c-46.6 3.3-68.6 5.1-72.3 5.9-15.2 3.6-27.8 16.4-32.7 33.2-.9 3.2-1.9 5.8-2.3 5.8-2.6 0-51.2 3.4-72.2 5-14 1-36.5 2.6-50 3.5-39.6 2.6-49.2 4.6-64.2 13.6-7.9 4.6-21.9 17.6-28.4 26.2-5.8 7.7-12.3 20.6-16 31.7l-2.9 8.5V561c0 133.6-.5 124.1 7.2 136.7 5.2 8.4 8.7 12.3 15.7 17.2 10.7 7.5 14.5 8.1 48.5 8.1l29.6.1 4.5 8.1c2.6 4.7 7.3 11.1 11 15l6.5 6.8h-61.7c-34 0-61.8.3-61.8.7 0 2.1 19.3 25.3 35.2 42.3 49.6 53 109.8 89.5 182.3 110.5 87.1 25.2 180.6 20.9 264.5-12.2 37.5-14.8 67.1-31.2 97-53.8 25.6-19.4 64.5-59.4 81.9-84.3l2.2-3.2h-62.3l5.7-5.2c5.7-5.2 11.5-12.9 15.3-20.4 1.8-3.6 2.7-4.2 6.2-4.8 5.8-.9 15.3-5.9 20.7-10.9 5.8-5.3 13.8-17.4 16-24.1 1.2-3.8 1.7-10.2 2-26.1.7-31-1.4-38.2-16.5-58.6-6.6-9-29.1-40.2-47-65.3-4.6-6.5-10.8-15-13.8-19-2.9-3.9-5.4-7.3-5.4-7.6 0-.3 3.4-.4 7.5-.2 16.1.9 28.9-6.5 35.1-20.1 2.3-5 2.9-8 3.2-15.7.4-8.3.1-10.6-2-16.7-4.7-13.3-19.3-32.8-38.9-51.9-31.9-30.9-77.6-55-121.4-64-14.2-2.9-28.9-3.5-47.1-2.1l-10.2.8-3.7-6.7c-7.4-13.3-20.3-22.8-35-25.9-7.6-1.6-11.8-1.6-30-.4zm23 32.8 4 1.8-6 .6c-16.1 1.7-92.7 6.9-93.2 6.3-.8-.8 6-4.6 9.2-5.1 1.7-.2 18.1-1.4 36.5-2.5 18.4-1.2 34.2-2.2 35-2.4 4-.9 10.9-.3 14.5 1.3zm86.6 31.7c43.4 7.4 84.1 28.2 116.2 59.4 18.8 18.2 29 32.5 29.1 40.8l.1 4.7-3.5-.1c-1.9-.1-45.6-.2-97-.3l-93.5-.2-.3 63-.2 63.1h46.3c46 0 46.3 0 50.7-2.3 6.2-3.1 9-7.6 9-14.3 0-4.3-2.2-11.4-10.9-35.6-6-16.7-11.8-32.6-12.9-35.4-1.2-2.9-1.9-5.3-1.7-5.5.2-.2 4.3-.2 9.1.1l8.8.5 10.2 23.5c5.6 12.9 14.5 33.6 19.8 46l9.5 22.5 36 .3 35.9.2 6.5 8.8c3.6 4.8 8.6 12.1 11.1 16.3 4.6 7.6 4.6 7.7 4.6 16.8v9.1h-14.9c-14.7 0-14.9 0-17.5 2.6-3.6 3.7-3.7 10.4-.1 13.9 2.3 2.4 2.8 2.5 17 2.5H802v4.1c0 3.3-.6 4.7-3.4 7.5l-3.4 3.4h-53.5c-29.4 0-54.7.2-56.3.5-2.8.5-3.1.2-7.3-8.7-10.3-22-31.3-34.2-55.5-32.5-20.3 1.4-36.9 13.1-47.1 33.1l-4.1 8.1h-24.9l-.5-111c-.6-120.2-.2-113-6.2-125-6.7-13.4-16.8-23.3-30.3-29.9-9.5-4.6-17.9-6.6-28.5-6.6-17.3 0-30.8 5.8-44.1 19-6.6 6.6-9.4 10.2-12.2 16.1-6.9 14-6.7 11-6.7 130.5V689h-34.7l-4.3-8.7c-3.3-6.8-6-10.4-11.9-16.3-12.6-12.5-26-17.7-43.1-16.7-16.1.9-28.5 6.8-39.4 18.9-4.6 5.1-12.6 18.9-12.6 21.8 0 .7-9.7 1-29.9.8-28.6-.3-30.1-.4-32.8-2.4-3.7-2.7-7.1-7.8-8.3-12.5-.7-2.5-1-41.3-.8-114.6l.3-110.8 2.8-8c8.9-25.3 28.4-41.8 53.2-44.9 5.9-.7 62.2-4.9 95.5-7.1 27.3-1.8 95.5-6.6 134.5-9.5 22.1-1.6 85.3-5.9 108.5-7.3 12.5-.8 16.1-.6 25.1.9zm-124 79.3c7.1 3.4 12.5 8.5 15.6 14.9l2.8 5.7.3 108.3.2 108.2-32.7-.2-32.8-.3v-216l2.8-5.7c3.4-6.9 10-13 17.1-15.8 7-2.8 20-2.3 26.7.9zm229.6 72.6c12.7 17.2 37.3 52.2 37.3 53 0 .3-9.5.4-21.1.3l-21-.3-2.8-6.5c-1.5-3.6-8-18.5-14.4-33.1-6.5-14.6-11.7-26.9-11.7-27.3 0-.4 5.3-.5 11.7-.4l11.8.3 10.2 14zm-83.7 21c5 2.6 7 6.7 8.6 17.3.8 5.3 1.7 10.9 2 12.4.5 2.6.4 2.8-3 2.8H646v-7.5c0-9-1.7-13.1-6.3-15-4.3-1.8-8.2-.9-11.2 2.7-2.2 2.6-2.5 3.9-2.5 11.4v8.4h-21v-11.3c0-13.4 1.7-18.3 7.1-21 4.6-2.3 25.6-2.4 29.9-.2zM338.7 681.9c5.6 2.8 10.2 7.6 12.9 13.6 5.7 12.1.5 27.2-12 35-4.4 2.7-5.8 3-12.5 3-8.8-.1-13.4-2-19.2-8.2-8.2-8.6-10.3-19.7-5.5-29.8 2.9-6.3 10.3-13 16.5-15 5.9-1.9 14.6-1.3 19.8 1.4zm298.7-.8c10.7 4 18.8 16.9 17.2 27.3-1.8 11.2-5.8 17.2-14.5 22-11.1 6-22.6 4.2-31.7-4.9-7.7-7.7-9.9-16-6.9-26.2 4.8-16.1 20.4-24.1 35.9-18.2zM572 726.4c1.8 5.7 8.8 15.8 14.8 21.3l5.6 5.3H362.7l5.1-5.4c4.2-4.5 12.2-15.5 12.2-16.9 0-.3.7-2.1 1.5-4.1l1.5-3.6h187.8l1.2 3.4zm114.5 2.8c5 9.6 10.9 17 17 21.5l3 2.2-21.9.1h-21.8l6.6-7.1c4.2-4.4 8-9.8 10.4-14.5 2-4.1 3.7-7.4 3.8-7.4.1 0 1.4 2.4 2.9 5.2zm19.4 95.1 8.3.2-10.8 7.2c-24.1 15.9-52.1 29.2-82.7 39.4-40.2 13.4-74.9 18.9-119.2 18.9-47.4 0-83-5.9-129-21.5-25.1-8.5-61.8-26.9-78.9-39.6l-5.8-4.4 19.3-.5c18.6-.5 381.5-.2 398.8.3z" />
    <path d="M572.2 410.5c-6.8 3-7.7 13.6-1.5 18.4 2.2 1.8 4 2.1 12.3 2.1h9.8l1.1-4.4c.6-2.5 1.5-4.8 2.1-5.1 2-1.2.9-5.2-2.4-8.8-3.3-3.6-3.5-3.7-10.7-3.7-4.1.1-8.9.7-10.7 1.5zM307 438c-32.8.4-38 .7-41.3 2.2-6.5 3-11.2 7.4-14.8 14l-3.4 6.3v23c0 21.3.2 23.3 2.1 27.6 3 6.4 7.7 11.4 13.6 14.3l5.2 2.6h40.1c45.3 0 46.3-.1 53.5-7.2 2.3-2.2 5.2-6.3 6.6-9.1 2.3-5 2.4-6 2.4-28.2 0-22.1-.1-23.2-2.4-28.1-4.3-9.3-11.8-15.5-20.9-17.3-1.8-.3-20.1-.4-40.7-.1zm25.3 34.9c-4.5 4.2-13.1 12.3-19.2 18-15.9 14.8-14.8 12.5 5.7-12.1l11.4-13.7 4.6-.3c2.6-.2 4.9-.1 5.2.1.3.2-3.2 3.8-7.7 8zm-36.9 10.6c-9.7 10.2-18.2 18.6-18.8 18.6-2.4.3-4.2-.3-5.3-1.9-1.8-2.2-1.8-32.3-.1-34 .9-.9 7.1-1.2 21.6-1.2h20.4l-17.8 18.5zM236.1 559.3c-8.2 4.2-8.8 17.2-.9 21.3 3.7 1.9 67.4 2 69.9.1 2.7-2 5.9-8 5.9-11 0-1.5-.7-4.1-1.5-5.7-3-5.8-4.3-6-39.2-6-23.2 0-32.4.4-34.2 1.3zM741.5 650.4c-13.6 6-10 24.6 4.7 24.6 7.3 0 12.8-5.7 12.8-13.2 0-3.7-2.9-9.2-5.7-10.6-3.4-1.9-8.7-2.2-11.8-.8zM475 470.8c-1.9.9-4.5 3.2-5.7 5.1-2.3 3.4-2.3 3.8-2.3 36.2v32.7l2.7 3.3c3 3.5 7.8 5.9 12 5.9 4.5-.1 11.1-3.6 13.3-7.2 1.9-3.1 2-5 2-35.3 0-30.2-.1-32.2-2-35.3-4.1-6.7-12.7-9.1-20-5.4zM483 571.3c-3.2 1.6-7 7.3-7 10.4 0 6.7 6.3 13.3 12.6 13.3 4.6 0 9.7-3.9 11.3-8.6 1.8-5.2.9-8.8-3.4-13.1-2.6-2.6-4.1-3.3-7.1-3.3-2.2 0-5 .6-6.4 1.3z" />
  </svg>